<?xml version="1.0" standalone="no"?><!DOCTYPE svg PUBLIC "-//W3C//DTD SVG 1.1//EN" "http://www.w3.org/Graphics/SVG/1.1/DTD/svg11.dtd"><svg t="1612636827506" class="icon" viewBox="0 0 1024 1024" version="1.1" xmlns="http://www.w3.org/2000/svg" p-id="2421" xmlns:xlink="http://www.w3.org/1999/xlink" width="200" height="200"><defs><style type="text/css"></style></defs><path d="M938.666667 512c0 235.669333-190.997333 426.666667-426.666667 426.666667S85.333333 747.669333 85.333333 512 276.330667 85.333333 512 85.333333s426.666667 190.997333 426.666667 426.666667z" fill="#6D4C41" p-id="2422"></path><path d="M170.666667 490.666667l85.333333-64 170.666667 149.333333-106.666667 42.666667s-147.498667-135.168-149.333333-128z" fill="#FFFFFF" p-id="2423"></path><path d="M277.333333 609.258667l42.666667 36.650666 128-54.485333V810.666667l-170.666667-106.666667zM469.333333 638.677333V810.666667l277.333334-106.666667v-79.573333L528.085333 709.973333z" fill="#FFFFFF" p-id="2424"></path><path d="M469.333333 598.677333L533.333333 682.666667l277.333334-106.666667-64-106.666667zM277.333333 394.666667v21.333333l106.666667 96v-50.666667zM405.333333 469.333333v42.666667l106.666667-42.666667v-42.666666zM405.333333 533.333333l106.666667-42.666666 69.333333 32L469.333333 576zM533.333333 426.666667v48l64 32V458.666667zM618.666667 469.333333l128-64v42.666667l-128 64zM533.333333 405.333333l85.333334 42.666667 128-64-85.333334-42.666667zM448 277.333333l85.333333 42.666667 85.333334-42.666667-85.333334-42.666666z" fill="#FFFFFF" p-id="2425"></path><path d="M640 308.672V277.333333l170.666667 64-42.666667 85.333334v-53.994667zM256 405.333333l-42.666667-85.333333 277.333334-85.333333-64 34.666666v80.661334L362.666667 320l-106.666667 42.666667z" fill="#FFFFFF" p-id="2426"></path><path d="M405.333333 448l106.666667-42.666667-149.333333-64-85.333334 32zM448 298.666667v53.077333L512 384v-53.077333zM533.333333 341.333333v42.666667l85.333334-42.666667v-42.666666z" fill="#FFFFFF" p-id="2427"></path></svg>